<svg height="512pt" viewBox="0 0 512 512" width="512pt" xmlns="http://www.w3.org/2000/svg"><path d="m435.480469 458.636719h-404.816407c-12.792968 0-23.160156-10.367188-23.160156-23.15625v-404.816407c0-12.792968 10.367188-23.160156 23.160156-23.160156h404.816407c12.789062 0 23.15625 10.367188 23.15625 23.15625v404.816406c0 12.792969-10.367188 23.160157-23.15625 23.160157zm0 0" fill="#e7e7e7"/><path d="m458.636719 30.660156v404.824219c0 12.785156-10.367188 23.152344-23.164063 23.152344h-28.054687c12.796875 0 23.164062-10.367188 23.164062-23.152344v-404.824219c0-12.789062-10.367187-23.152344-23.164062-23.152344h28.054687c12.796875 0 23.164063 10.363282 23.164063 23.152344zm0 0" fill="#cecece"/><path d="m458.636719 86.507812h-451.132813v-55.84375c0-12.792968 10.367188-23.160156 23.160156-23.160156h404.816407c12.789062 0 23.15625 10.367188 23.15625 23.15625zm0 0" fill="#64dcfc"/><path d="m458.636719 30.660156v55.847656h-28.054688v-55.847656c0-12.789062-10.367187-23.152344-23.164062-23.152344h28.054687c12.796875 0 23.164063 10.363282 23.164063 23.152344zm0 0" fill="#00d1fc"/><g fill="#ffd86e"><path d="m101.285156 154.039062c0 12.839844-10.410156 23.25-23.25 23.25-12.84375 0-23.253906-10.410156-23.253906-23.25 0-12.84375 10.410156-23.253906 23.253906-23.253906 12.839844 0 23.25 10.410156 23.25 23.253906zm0 0"/><path d="m101.285156 260.210938c0 12.84375-10.410156 23.253906-23.25 23.253906-12.84375 0-23.253906-10.410156-23.253906-23.253906 0-12.839844 10.410156-23.25 23.253906-23.25 12.839844 0 23.25 10.410156 23.25 23.25zm0 0"/><path d="m101.285156 359.167969c0 12.839843-10.410156 23.25-23.25 23.25-12.84375 0-23.253906-10.410157-23.253906-23.25 0-12.84375 10.410156-23.253907 23.253906-23.253907 12.839844 0 23.25 10.410157 23.25 23.253907zm0 0"/></g><path d="m101.289062 154.035156c0 12.847656-10.417968 23.25-23.253906 23.25-6.421875 0-12.238281-2.601562-16.449218-6.800781 11.976562-.941406 21.402343-10.945313 21.402343-23.171875 0-6.425781-2.613281-12.238281-6.824219-16.449219.621094-.0625 1.242188-.082031 1.871094-.082031 12.835938 0 23.253906 10.417969 23.253906 23.253906zm0 0" fill="#ffb509"/><path d="m101.289062 260.210938c0 12.847656-10.417968 23.253906-23.253906 23.253906-6.421875 0-12.238281-2.601563-16.449218-6.804688 11.976562-.941406 21.402343-10.957031 21.402343-23.171875 0-6.425781-2.613281-12.238281-6.824219-16.449219.621094-.0625 1.242188-.082031 1.871094-.082031 12.835938 0 23.253906 10.417969 23.253906 23.253907zm0 0" fill="#ffb509"/><path d="m101.289062 359.164062c0 12.847657-10.417968 23.25-23.253906 23.25-6.421875 0-12.238281-2.601562-16.449218-6.800781 11.976562-.941406 21.402343-10.945312 21.402343-23.171875 0-6.425781-2.613281-12.238281-6.824219-16.449218.621094-.0625 1.242188-.082032 1.871094-.082032 12.835938 0 23.253906 10.417969 23.253906 23.253906zm0 0" fill="#ffb509"/><path d="m503.640625 421.207031c0 46-37.292969 83.289063-83.292969 83.289063-45.996094 0-83.289062-37.289063-83.289062-83.289063s37.292968-83.292969 83.289062-83.292969c46 0 83.292969 37.292969 83.292969 83.292969zm0 0" fill="#c9f0ff"/><path d="m503.640625 421.207031c0 46.003907-37.289063 83.292969-83.292969 83.292969-17.652344 0-34.007812-5.492188-47.476562-14.859375 7.105468 1.984375 14.597656 3.03125 22.332031 3.03125 46.003906 0 83.292969-37.289063 83.292969-83.292969 0-28.355468-14.167969-53.398437-35.808594-68.425781 35.160156 9.753906 60.953125 41.992187 60.953125 80.253906zm0 0" fill="#9ae7fd"/><path d="m477.394531 395.675781-17.6875-17.6875c-2.734375-2.738281-7.167969-2.738281-9.902343 0l-45.152344 45.148438-14.238282-14.238281c-2.089843-2.089844-5.480468-2.089844-7.570312 0l-20.023438 20.023437c-2.089843 2.089844-2.089843 5.476563 0 7.566406l37.425782 36.335938c2.738281 2.734375 7.171875 2.734375 9.90625 0l67.242187-67.246094c2.738281-2.734375 2.738281-7.167969 0-9.902344zm0 0" fill="#80e0dc"/><path d="m477.398438 405.578125-67.246094 67.246094c-2.734375 2.730469-7.175782 2.730469-9.90625 0l-5.042969-4.894531c.320313-.21875.621094-.480469.902344-.757813l74.597656-74.601563c.628906-.628906 1.128906-1.339843 1.492187-2.101562l5.203126 5.203125c2.730468 2.742187 2.730468 7.175781 0 9.90625zm0 0" fill="#00a8b0"/><path d="m59.734375 47.007812c0 8.015626-6.5 14.515626-14.515625 14.515626-8.019531 0-14.519531-6.5-14.519531-14.515626 0-8.019531 6.5-14.519531 14.519531-14.519531 8.015625 0 14.515625 6.5 14.515625 14.519531zm0 0" fill="#ff6b81"/><path d="m115.800781 47.007812c0 8.015626-6.5 14.515626-14.515625 14.515626-8.019531 0-14.519531-6.5-14.519531-14.515626 0-8.019531 6.5-14.519531 14.519531-14.519531 8.015625 0 14.515625 6.5 14.515625 14.519531zm0 0" fill="#ffd86e"/><path d="m171.867188 47.007812c0 8.015626-6.496094 14.515626-14.515626 14.515626-8.019531 0-14.519531-6.5-14.519531-14.515626 0-8.019531 6.5-14.519531 14.519531-14.519531 8.019532 0 14.515626 6.5 14.515626 14.519531zm0 0" fill="#80e0dc"/><path d="m59.730469 47.011719c0 8.015625-6.496094 14.507812-14.507813 14.507812-3.882812 0-7.414062-1.519531-10.015625-4.011719 7.855469-.171874 14.175781-6.59375 14.175781-14.5 0-4.140624-1.730468-7.863281-4.5-10.503906.109376-.007812.230469-.007812.339844-.007812 8.011719-.003906 14.507813 6.492187 14.507813 14.515625zm0 0" fill="#ff435f"/><path d="m115.800781 47.011719c0 8.015625-6.496093 14.507812-14.519531 14.507812-3.882812 0-7.402344-1.519531-10.015625-4.011719 7.863281-.171874 14.1875-6.59375 14.1875-14.5 0-4.140624-1.730469-7.863281-4.5-10.503906.109375-.007812.21875-.007812.328125-.007812 8.023438-.003906 14.519531 6.492187 14.519531 14.515625zm0 0" fill="#ffb509"/><path d="m171.867188 47.011719c0 8.015625-6.5 14.507812-14.515626 14.507812-3.882812 0-7.402343-1.519531-10.015624-4.011719 7.863281-.171874 14.175781-6.59375 14.175781-14.5 0-4.140624-1.730469-7.863281-4.5-10.503906.109375-.007812.230469-.007812.339843-.007812 8.015626-.003906 14.515626 6.492187 14.515626 14.515625zm0 0" fill="#00a8b0"/><path d="m169.996094 146.535156h-38.019532c-4.144531 0-7.503906 3.355469-7.503906 7.503906 0 4.144532 3.359375 7.503907 7.503906 7.503907h38.019532c4.144531 0 7.503906-3.359375 7.503906-7.503907 0-4.148437-3.359375-7.503906-7.503906-7.503906zm0 0"/><path d="m214.019531 146.535156h-18.007812c-4.144531 0-7.503907 3.355469-7.503907 7.503906 0 4.144532 3.359376 7.503907 7.503907 7.503907h18.007812c4.144531 0 7.503907-3.359375 7.503907-7.503907 0-4.148437-3.359376-7.503906-7.503907-7.503906zm0 0"/><path d="m156.488281 180.527344c0 4.144531 3.359375 7.503906 7.503907 7.503906h25.015624c4.144532 0 7.503907-3.359375 7.503907-7.503906 0-4.144532-3.359375-7.503906-7.503907-7.503906h-25.015624c-4.144532 0-7.503907 3.359374-7.503907 7.503906zm0 0"/><path d="m201.011719 215.46875c4.148437 0 7.503906-3.359375 7.503906-7.503906 0-4.148438-3.355469-7.503906-7.503906-7.503906h-13.003907c-4.148437 0-7.503906 3.355468-7.503906 7.503906 0 4.144531 3.355469 7.503906 7.503906 7.503906zm0 0"/><path d="m307.070312 200.460938h-25.015624c-4.144532 0-7.503907 3.355468-7.503907 7.503906 0 4.144531 3.359375 7.503906 7.503907 7.503906h25.015624c4.144532 0 7.503907-3.359375 7.503907-7.503906 0-4.148438-3.359375-7.503906-7.503907-7.503906zm0 0"/><path d="m272.050781 173.023438h-60.03125c-4.144531 0-7.503906 3.359374-7.503906 7.503906 0 4.144531 3.359375 7.503906 7.503906 7.503906h60.03125c4.144531 0 7.503907-3.359375 7.503907-7.503906 0-4.144532-3.359376-7.503906-7.503907-7.503906zm0 0"/><path d="m259.042969 200.460938h-36.019531c-4.144532 0-7.503907 3.355468-7.503907 7.503906 0 4.144531 3.359375 7.503906 7.503907 7.503906h36.019531c4.144531 0 7.503906-3.359375 7.503906-7.503906 0-4.148438-3.359375-7.503906-7.503906-7.503906zm0 0"/><path d="m131.976562 264.476562h21.011719c4.144531 0 7.503907-3.359374 7.503907-7.503906 0-4.144531-3.359376-7.503906-7.503907-7.503906h-21.011719c-4.144531 0-7.503906 3.359375-7.503906 7.503906 0 4.144532 3.359375 7.503906 7.503906 7.503906zm0 0"/><path d="m166.496094 256.972656c0 4.144532 3.359375 7.503906 7.503906 7.503906h77.039062c4.144532 0 7.503907-3.359374 7.503907-7.503906 0-4.144531-3.359375-7.503906-7.503907-7.503906h-77.039062c-4.144531 0-7.503906 3.359375-7.503906 7.503906zm0 0"/><path d="m156.488281 283.464844c0 4.144531 3.359375 7.503906 7.503907 7.503906h73.039062c4.144531 0 7.503906-3.359375 7.503906-7.503906 0-4.148438-3.359375-7.503906-7.503906-7.503906h-73.039062c-4.144532 0-7.503907 3.355468-7.503907 7.503906zm0 0"/><path d="m250.539062 283.464844c0 4.144531 3.359376 7.503906 7.503907 7.503906h14.007812c4.144531 0 7.503907-3.359375 7.503907-7.503906 0-4.148438-3.359376-7.503906-7.503907-7.503906h-14.007812c-4.144531 0-7.503907 3.355468-7.503907 7.503906zm0 0"/><path d="m131.976562 362.960938h38.019532c4.144531 0 7.503906-3.359376 7.503906-7.503907 0-4.148437-3.359375-7.507812-7.503906-7.507812h-38.019532c-4.144531 0-7.503906 3.359375-7.503906 7.507812 0 4.144531 3.359375 7.503907 7.503906 7.503907zm0 0"/><path d="m196.011719 362.960938h18.007812c4.144531 0 7.503907-3.359376 7.503907-7.503907 0-4.148437-3.359376-7.507812-7.503907-7.507812h-18.007812c-4.144531 0-7.503907 3.359375-7.503907 7.507812 0 4.144531 3.359376 7.503907 7.503907 7.503907zm0 0"/><path d="m156.488281 381.945312c0 4.144532 3.359375 7.503907 4.472657 8.523438h25.015624c7.175782-1.019531 10.535157-4.378906 10.535157-8.523438 0-4.144531-3.359375-7.503906-7.503907-7.503906h-25.015624c-4.144532 0-7.503907 3.359375-7.503907 7.503906zm0 0"/><path d="m188.007812 416.882812h13.003907c4.148437 0 7.503906-3.359374 7.503906-7.503906 0-4.144531-3.355469-7.503906-7.503906-7.503906h-13.003907c-4.148437 0-7.503906 3.359375-7.503906 7.503906 0 4.144532 3.355469 7.503906 7.503906 7.503906zm0 0"/><path d="m282.054688 416.882812h25.015624c4.144532 0 7.503907-3.359374 7.503907-7.503906 0-4.144531-3.359375-7.503906-7.503907-7.503906h-25.015624c-4.144532 0-7.503907 3.359375-7.503907 7.503906 0 4.144532 3.359375 7.503906 7.503907 7.503906zm0 0"/><path d="m279.554688 381.945312c0-4.144531-3.359376-7.503906-7.503907-7.503906h-60.03125c-4.144531 0-7.503906 3.359375-7.503906 7.503906 0 4.144532 3.359375 7.503907 7.503906 7.503907h60.03125c4.144531 0 7.503907-3.359375 7.503907-7.503907zm0 0"/><path d="m223.023438 401.875c-4.144532 0-7.503907 3.359375-7.503907 7.503906 0 4.144532 3.359375 7.503906 7.503907 7.503906h36.019531c4.144531 0 7.503906-3.359374 7.503906-7.503906 0-4.144531-3.359375-7.503906-7.503906-7.503906zm0 0"/><path d="m120.121094 119.136719c-2.722656-3.125-7.460938-3.457031-10.589844-.734375l-12.867188 11.1875c-5.171874-3.953125-11.632812-6.304688-18.628906-6.304688-16.960937 0-30.757812 13.792969-30.757812 30.753906 0 16.957032 13.796875 30.753907 30.757812 30.753907 16.957032 0 30.753906-13.796875 30.753906-30.753907 0-4.53125-.992187-8.828124-2.757812-12.703124l13.351562-11.609376c3.125-2.722656 3.457032-7.460937.738282-10.589843zm-42.085938 50.648437c-8.683594 0-15.75-7.066406-15.75-15.746094 0-8.683593 7.066406-15.746093 15.75-15.746093 2.441406 0 4.75.574219 6.816406 1.574219l-11.742187 10.210937c-3.125 2.71875-3.457031 7.460937-.738281 10.585937 1.484375 1.707032 3.570312 2.582032 5.667968 2.582032 1.746094 0 3.5-.605469 4.917969-1.84375l10.695313-9.296875c.078125.632812.128906 1.277343.128906 1.933593 0 8.683594-7.0625 15.746094-15.746094 15.746094zm0 0"/><path d="m78.035156 290.96875c16.957032 0 30.753906-13.800781 30.753906-30.757812 0-5-1.207031-9.722657-3.335937-13.902344l13.929687-12.113282c3.125-2.71875 3.457032-7.457031.738282-10.585937-2.722656-3.125-7.460938-3.457031-10.589844-.738281l-13.929688 12.117187c-4.984374-3.480469-11.039062-5.53125-17.566406-5.53125-16.960937 0-30.757812 13.796875-30.757812 30.753907 0 16.957031 13.796875 30.757812 30.757812 30.757812zm0-46.503906c1.9375 0 3.789063.367187 5.503906 1.011718l-10.429687 9.070313c-3.128906 2.722656-3.457031 7.460937-.738281 10.589844 1.484375 1.703125 3.566406 2.578125 5.664062 2.578125 1.746094 0 3.503906-.605469 4.921875-1.84375l10.441407-9.078125c.242187 1.101562.382812 2.242187.382812 3.417969 0 8.683593-7.0625 15.746093-15.746094 15.746093s-15.75-7.066406-15.75-15.746093c0-8.683594 7.066406-15.746094 15.75-15.746094zm0 0"/><path d="m78.035156 389.921875c16.957032 0 30.753906-13.796875 30.753906-30.753906 0-4.859375-1.136718-9.457031-3.152343-13.546875l13.746093-11.953125c3.125-2.71875 3.457032-7.457031.738282-10.585938-2.722656-3.125-7.460938-3.457031-10.589844-.738281l-13.601562 11.832031c-5.046876-3.621093-11.222657-5.765625-17.894532-5.765625-16.960937 0-30.757812 13.796875-30.757812 30.753906 0 16.960938 13.796875 30.757813 30.757812 30.757813zm0-46.503906c2.09375 0 4.09375.421875 5.925782 1.167969l-10.851563 9.433593c-3.128906 2.722657-3.457031 7.460938-.738281 10.589844 1.484375 1.703125 3.566406 2.578125 5.664062 2.578125 1.746094 0 3.503906-.605469 4.921875-1.84375l10.53125-9.15625c.1875.964844.292969 1.957031.292969 2.976562 0 8.683594-7.066406 15.75-15.746094 15.75-8.683594 0-15.75-7.066406-15.75-15.75 0-8.679687 7.066406-15.746093 15.75-15.746093zm0 0"/><path d="m45.21875 24.984375c-12.144531 0-22.023438 9.878906-22.023438 22.023437 0 12.140626 9.878907 22.019532 22.023438 22.019532 12.140625 0 22.019531-9.878906 22.019531-22.019532 0-12.144531-9.878906-22.023437-22.019531-22.023437zm0 29.035156c-3.867188 0-7.015625-3.148437-7.015625-7.011719 0-3.867187 3.148437-7.015624 7.015625-7.015624 3.863281 0 7.011719 3.148437 7.011719 7.015624 0 3.863282-3.148438 7.011719-7.011719 7.011719zm0 0"/><path d="m101.285156 24.984375c-12.144531 0-22.023437 9.878906-22.023437 22.023437 0 12.140626 9.878906 22.019532 22.023437 22.019532 12.140625 0 22.019532-9.878906 22.019532-22.019532 0-12.144531-9.878907-22.023437-22.019532-22.023437zm0 29.035156c-3.867187 0-7.015625-3.148437-7.015625-7.011719 0-3.867187 3.148438-7.015624 7.015625-7.015624 3.867188 0 7.011719 3.148437 7.011719 7.015624 0 3.863282-3.144531 7.011719-7.011719 7.011719zm0 0"/><path d="m157.351562 24.984375c-12.144531 0-22.023437 9.878906-22.023437 22.023437 0 12.140626 9.878906 22.019532 22.023437 22.019532 12.140626 0 22.019532-9.878906 22.019532-22.019532 0-12.144531-9.878906-22.023437-22.019532-22.023437zm0 29.035156c-3.867187 0-7.015624-3.148437-7.015624-7.011719 0-3.867187 3.148437-7.015624 7.015624-7.015624 3.867188 0 7.011719 3.148437 7.011719 7.015624 0 3.863282-3.144531 7.011719-7.011719 7.011719zm0 0"/><path d="m466.140625 342.832031v-312.167969c0-16.910156-13.753906-30.664062-30.660156-30.664062h-404.816407c-16.910156 0-30.664062 13.753906-30.664062 30.664062v138.171876c0 4.144531 3.359375 7.503906 7.503906 7.503906 4.144532 0 7.503906-3.359375 7.503906-7.503906v-74.824219h436.125v241.777343c-9.617187-3.476562-19.980468-5.375-30.78125-5.375-5.746093 0-11.496093.539063-17.089843 1.605469-4.070313.777344-6.742188 4.707031-5.964844 8.777344.773437 4.070313 4.714844 6.742187 8.773437 5.964844 4.671876-.890625 9.476563-1.34375 14.277344-1.34375 41.789063 0 75.789063 34 75.789063 75.785156 0 41.789063-34 75.789063-75.789063 75.789063-41.789062 0-75.785156-34-75.785156-75.789063 0-21.15625 8.945312-41.503906 24.535156-55.828125 3.050782-2.800781 3.253906-7.550781.449219-10.601562-2.804687-3.050782-7.550781-3.253907-10.601563-.449219-18.679687 17.15625-29.390624 41.535156-29.390624 66.878906 0 10.484375 1.792968 20.554687 5.074218 29.929687h-303.964844c-8.632812 0-15.65625-7.023437-15.65625-15.65625v-220.695312c0-4.144531-3.359374-7.503906-7.503906-7.503906-4.144531 0-7.503906 3.359375-7.503906 7.503906v220.699219c0 16.90625 13.753906 30.660156 30.664062 30.660156h310.8125c15.65625 27.371094 45.144532 45.859375 78.871094 45.859375 50.066406 0 90.796875-40.730469 90.796875-90.792969 0-33.375-18.105469-62.597656-45.003906-78.375zm-15.007813-263.828125h-436.125v-48.339844c0-8.632812 7.023438-15.65625 15.65625-15.65625h404.816407c8.628906 0 15.652343 7.023438 15.652343 15.65625zm0 0"/><path d="m353.75 432.707031c0 3.433594 1.335938 6.660157 3.765625 9.089844.027344.023437.050781.050781.078125.074219l37.394531 36.304687c2.820313 2.796875 6.515625 4.195313 10.210938 4.195313 3.714843 0 7.429687-1.414063 10.257812-4.242188l67.246094-67.242187c5.65625-5.660157 5.65625-14.863281 0-20.519531l-17.6875-17.6875c-5.65625-5.65625-14.863281-5.65625-20.519531 0l-39.84375 39.84375-8.933594-8.933594c-2.429688-2.425782-5.65625-3.765625-9.089844-3.765625s-6.664062 1.335937-9.09375 3.765625l-20.019531 20.023437c-2.429687 2.429688-3.765625 5.65625-3.765625 9.09375zm32.878906-16.980469 12.71875 12.71875c2.929688 2.929688 7.683594 2.929688 10.613282 0l44.792968-44.796874 16.980469 16.980468-66.539063 66.539063-35.523437-34.484375zm0 0"/></svg>