<?xml version="1.0" encoding="iso-8859-1"?>
<!-- Generator: Adobe Illustrator 19.0.0, SVG Export Plug-In . SVG Version: 6.00 Build 0)  -->
<svg version="1.1" id="Capa_1" xmlns="http://www.w3.org/2000/svg" xmlns:xlink="http://www.w3.org/1999/xlink" x="0px" y="0px"
	 viewBox="0 0 512.001 512.001" style="enable-background:new 0 0 512.001 512.001;" xml:space="preserve">
<path style="fill:#7A7780;" d="M496.973,436.98c0,8.4-6.598,14.998-14.998,14.998H325.393c-8.4,0-14.998-6.598-14.998-14.998
	s6.598-14.998,14.998-14.998h156.581C490.374,421.982,496.973,428.58,496.973,436.98z"/>
<path style="fill:#57555C;" d="M496.973,436.98c0,8.4-6.598,14.998-14.998,14.998h-59.993v-29.997h59.993
	C490.374,421.982,496.973,428.58,496.973,436.98z"/>
<path style="fill:#7A7780;" d="M201.605,436.98c0,8.4-6.598,14.998-14.998,14.998H30.026c-8.4,0-14.998-6.598-14.998-14.998
	s6.598-14.998,14.998-14.998h156.581C195.007,421.982,201.605,428.58,201.605,436.98z"/>
<path style="fill:#57555C;" d="M201.605,436.98c0,8.4-6.598,14.998-14.998,14.998H90.019v-29.997h96.588
	C195.007,421.982,201.605,428.58,201.605,436.98z"/>
<path style="fill:#1DE8F1;" d="M316.993,0.029H195.007c-24.898,0-44.995,21.097-44.995,45.995v30.996
	c0,24.898,20.097,44.995,44.995,44.995H249.7l6.3,6.3l50.495,49.193c4.199,4.5,10.799,5.699,16.197,3.301
	c5.699-2.401,9.299-7.799,9.299-13.799v-47.696c17.399-5.998,29.997-22.795,29.997-42.294V46.024
	C361.988,21.127,341.891,0.029,316.993,0.029z"/>
<path style="fill:#57555C;" d="M496.958,511.971c-6.723,0-12.831-4.54-14.529-11.366l-29.997-119.986
	c-2.021-8.026,2.871-16.17,10.912-18.177c8.026-2.08,16.17,2.871,18.177,10.912l29.997,119.986
	c2.021,8.026-2.871,16.17-10.912,18.177C499.389,511.825,498.16,511.971,496.958,511.971z"/>
<path style="fill:#7A7780;" d="M15.042,511.971c-1.201,0-2.432-0.146-3.647-0.454c-8.041-2.007-12.934-10.15-10.912-18.177
	l29.997-119.986c2.007-8.056,10.106-13.007,18.177-10.912c8.041,2.007,12.934,10.15,10.912,18.177L29.573,500.606
	C27.873,507.431,21.765,511.971,15.042,511.971z"/>
<g>
	<path style="fill:#1689FC;" d="M135.014,122.016c0,24.898-20.097,44.995-44.995,44.995s-44.995-20.097-44.995-44.995
		s20.097-44.995,44.995-44.995S135.014,97.118,135.014,122.016z"/>
	<path style="fill:#1689FC;" d="M217.204,511.07c-14.397,3.602-31.796-4.199-36.295-21.897l-39.298-112.187H30.026
		c-19.499,0-33.896-18.298-29.096-37.196l29.997-134.985c3.3-12.899,15.296-22.497,28.796-22.497
		c11.699,0,22.197,6.298,26.998,16.197l3.3,8.7l7.499,19.797h82.491c16.498,0,29.997,13.498,29.997,29.997
		s-13.498,29.997-29.997,29.997h-35.096c0,0-1.5,0-9.9,0s-14.998,6.598-14.998,14.998s6.598,14.998,14.998,14.998h29.997
		c13.799,0,25.797,9.299,29.096,22.797l44.995,134.985C243.001,490.673,233.404,507.173,217.204,511.07z"/>
</g>
<g>
	<path style="fill:#B758CE;" d="M466.976,122.016c0,24.898-20.097,44.995-44.995,44.995c-24.898,0-44.995-20.097-44.995-44.995
		s20.097-44.995,44.995-44.995C446.879,77.021,466.976,97.118,466.976,122.016z"/>
	<path style="fill:#B758CE;" d="M481.974,376.987H370.388l-39.298,112.187c-4.498,17.699-21.897,25.498-36.295,21.897
		c-16.199-3.898-25.797-20.398-21.897-36.295l44.995-134.985c3.3-13.498,15.296-22.797,29.096-22.797h29.997
		c8.4,0,14.998-6.598,14.998-14.998s-6.598-14.998-14.998-14.998h-9.299c0,0-4.2,0-35.696,0c-16.498,0-29.997-13.498-29.997-29.997
		s13.498-29.997,29.997-29.997h82.491l7.499-19.797l3.3-8.7c4.8-9.9,15.298-16.197,26.998-16.197
		c13.498,0,25.496,9.599,28.796,22.497l29.997,134.985C515.871,358.69,501.473,376.987,481.974,376.987z"/>
</g>
<path style="fill:#1BD9DE;" d="M361.988,46.024v30.996c0,19.499-12.598,36.297-29.997,42.294v47.696
	c0,5.999-3.6,11.399-9.299,13.799c-5.399,2.399-12,1.199-16.197-3.301L256,128.316V0.029h60.993
	C341.891,0.029,361.988,21.127,361.988,46.024z"/>
<g>
	<path style="fill:#AA3DC8;" d="M481.974,376.987h-59.993v-169.78l3.3-8.7c4.8-9.9,15.298-16.197,26.998-16.197
		c13.498,0,25.496,9.599,28.796,22.497l29.997,134.985C515.871,358.69,501.473,376.987,481.974,376.987z"/>
	<path style="fill:#AA3DC8;" d="M466.976,122.016c0,24.898-20.097,44.995-44.995,44.995v-89.99
		C446.879,77.021,466.976,97.118,466.976,122.016z"/>
</g>
<g>
	<path style="fill:#136EF1;" d="M217.204,511.07c-14.397,3.602-31.796-4.199-36.295-21.897l-39.298-112.187H90.019v-169.78
		l7.499,19.797h82.491c16.498,0,29.997,13.498,29.997,29.997s-13.498,29.997-29.997,29.997h-35.095c0,0-1.5,0-9.9,0
		s-14.998,6.598-14.998,14.998s6.598,14.998,14.998,14.998h29.997c13.799,0,25.797,9.299,29.096,22.797l44.995,134.985
		C243.001,490.673,233.404,507.173,217.204,511.07z"/>
	<path style="fill:#136EF1;" d="M135.014,122.016c0,24.898-20.097,44.995-44.995,44.995v-89.99
		C114.917,77.021,135.014,97.118,135.014,122.016z"/>
</g>
<g>
</g>
<g>
</g>
<g>
</g>
<g>
</g>
<g>
</g>
<g>
</g>
<g>
</g>
<g>
</g>
<g>
</g>
<g>
</g>
<g>
</g>
<g>
</g>
<g>
</g>
<g>
</g>
<g>
</g>
</svg>
